# xmcd
#
# Track frame offsets:
#	195
#	8494
#	19546
#	32733
#	47087
#	59637
#	69743
#	84955
#	98709
#	110654
#	123521
#	136953
#	148644
#	157824
#
# Disc length: 2297 seconds
#
# Revision: 0
# Processed by: cddbd v1.5.1PL0 Copyright (c) Steve Scherf et al.
# Submitted via: audiograbber 1.83.01
#
DISCID=b308f70e
DTITLE=Urban Djin - Career Move
DYEAR=2000
DGENRE=Country
TTITLE0=Wedding of the Bugs
TTITLE1=I've Been a Long Time Leavin'
TTITLE2=Drunkard's Blues
TTITLE3=Plastic Saddle
TTITLE4=These Hands
TTITLE5=I Cast a Lonseome Shadow
TTITLE6=Smokin' in Bed
TTITLE7=Dreamy Doll
TTITLE8=I Don't Feel at Home
TTITLE9=The Cave
TTITLE10=The King is Gone
TTITLE11=Slightly Used
TTITLE12=A Man's Gotta Do, What a Man's Gotta Do
TTITLE13=Jimmie Rogers' Last Blue Yodel
EXTD=
EXTT0=
EXTT1=
EXTT2=
EXTT3=
EXTT4=
EXTT5=
EXTT6=
EXTT7=
EXTT8=
EXTT9=
EXTT10=
EXTT11=
EXTT12=
EXTT13=
PLAYORDER=
